<svg width="479" height="270" viewBox="0 0 479 270" fill="none" xmlns="http://www.w3.org/2000/svg">
<path d="M236.25 188.018V83.9815C236.25 82.4844 235.852 81.0142 235.096 79.7219C234.34 78.4296 233.254 77.3616 231.949 76.6276L139.137 24.4206C137.874 23.7102 136.449 23.337 135 23.337C133.551 23.337 132.126 23.7102 130.863 24.4206L38.0509 76.6276C36.7461 77.3616 35.66 78.4296 34.9042 79.7219C34.1484 81.0142 33.75 82.4844 33.75 83.9815V188.018C33.75 189.516 34.1484 190.986 34.9042 192.278C35.66 193.57 36.7461 194.638 38.0509 195.372L130.863 247.579C132.126 248.29 133.551 248.663 135 248.663C136.449 248.663 137.874 248.29 139.137 247.579L231.949 195.372C233.254 194.638 234.34 193.57 235.096 192.278C235.852 190.986 236.25 189.516 236.25 188.018Z" stroke="black" stroke-width="8" stroke-linecap="round" stroke-linejoin="round"/>
<path d="M185.625 157.148V104.13L86.4844 49.5703" stroke="black" stroke-width="7" stroke-linecap="round" stroke-linejoin="round"/>
<path d="M235.087 78.7082L136.001 135L34.9186 78.6976" stroke="black" stroke-width="8" stroke-linecap="round" stroke-linejoin="round"/>
<path d="M136.001 135L135.011 247.663" stroke="black" stroke-width="8" stroke-linecap="round" stroke-linejoin="round"/>
<path opacity="0.2" d="M32.8217 79.1016C32.0482 80.3978 31.6403 81.8752 31.6406 83.38V187.284C31.6406 188.779 32.0433 190.248 32.8073 191.538C33.5713 192.829 34.6692 193.896 35.9882 194.629L129.807 246.769C131.083 247.479 132.523 247.852 133.988 247.851L133.999 247.852L135 135.332L32.8219 79.1017L32.8217 79.1016Z" fill="black" fill-opacity="0.75"/>
<path d="M429.371 140.281C429.371 139.283 429.142 138.487 428.684 137.891C428.225 137.296 427.571 137.001 426.72 137.005C425.874 137.005 425.221 137.302 424.761 137.897C424.3 138.491 424.071 139.287 424.073 140.286C424.073 141.285 424.302 142.082 424.761 142.676C425.219 143.27 425.872 143.568 426.72 143.568C427.563 143.568 428.216 143.27 428.678 142.676C429.141 142.082 429.372 141.284 429.371 140.281ZM426.72 141.824C426.147 141.824 425.86 141.31 425.86 140.281C425.86 139.253 426.147 138.738 426.72 138.738C427.292 138.738 427.579 139.253 427.579 140.281C427.579 141.31 427.292 141.824 426.72 141.824ZM434.34 142.671C434.798 142.077 435.028 141.28 435.028 140.281C435.028 139.282 434.798 138.486 434.34 137.891C433.875 137.301 433.222 137.005 432.381 137.005C431.541 137.005 430.887 137.302 430.421 137.897C429.963 138.491 429.733 139.287 429.733 140.286C429.733 141.285 429.963 142.082 430.421 142.676C430.879 143.27 431.533 143.568 432.381 143.568C433.23 143.568 433.883 143.269 434.34 142.671ZM432.381 141.824C431.809 141.824 431.522 141.31 431.522 140.281C431.522 139.253 431.809 138.738 432.381 138.738C432.954 138.738 433.241 139.253 433.241 140.281C433.241 141.31 432.954 141.824 432.381 141.824ZM440.184 142.671C440.642 142.077 440.871 141.28 440.871 140.281C440.871 139.282 440.642 138.486 440.184 137.891C439.726 137.298 439.073 137.001 438.225 137C437.378 136.999 436.725 137.296 436.266 137.891C435.808 138.486 435.579 139.282 435.579 140.281C435.579 141.28 435.808 142.077 436.266 142.671C436.725 143.265 437.378 143.562 438.225 143.562C439.073 143.562 439.726 143.265 440.184 142.671ZM438.225 141.824C437.653 141.824 437.366 141.31 437.366 140.281C437.366 139.253 437.653 138.738 438.225 138.738C438.798 138.738 439.084 139.253 439.084 140.281C439.084 141.31 438.798 141.824 438.225 141.824V141.824ZM442.031 139.165C442.105 139.148 442.181 139.147 442.254 139.163C442.328 139.18 442.396 139.212 442.455 139.259C442.514 139.305 442.562 139.365 442.595 139.432C442.628 139.5 442.645 139.574 442.645 139.649V142.923C442.645 143.055 442.697 143.181 442.791 143.275C442.884 143.368 443.011 143.42 443.143 143.42H443.952C444.085 143.42 444.211 143.368 444.305 143.275C444.398 143.181 444.451 143.055 444.451 142.923V137.639C444.451 137.574 444.438 137.51 444.413 137.449C444.388 137.389 444.351 137.335 444.305 137.289C444.258 137.242 444.203 137.206 444.143 137.181C444.083 137.156 444.018 137.144 443.952 137.144H443.007C442.949 137.143 442.891 137.153 442.835 137.173L441.581 137.624C441.463 137.667 441.366 137.752 441.308 137.864C441.251 137.975 441.237 138.103 441.27 138.224L441.433 138.814C441.467 138.939 441.549 139.045 441.661 139.111C441.772 139.177 441.905 139.196 442.031 139.165V139.165ZM450.654 140.281C450.654 139.283 450.425 138.487 449.966 137.891C449.508 137.296 448.853 137.001 448.001 137.005C447.155 137.005 446.502 137.302 446.042 137.897C445.581 138.491 445.352 139.287 445.355 140.286C445.355 141.285 445.584 142.082 446.042 142.676C446.5 143.27 447.153 143.568 448.001 143.568C448.846 143.568 449.499 143.27 449.96 142.676C450.42 142.082 450.651 141.284 450.654 140.281ZM448.002 141.824C447.43 141.824 447.143 141.31 447.143 140.281C447.143 139.253 447.43 138.738 448.002 138.738C448.575 138.738 448.862 139.253 448.862 140.281C448.862 141.31 448.575 141.824 448.001 141.824H448.002ZM453.845 143.562C454.69 143.562 455.344 143.265 455.805 142.671C456.267 142.077 456.496 141.28 456.493 140.281C456.493 139.283 456.263 138.487 455.805 137.891C455.347 137.296 454.693 137.001 453.845 137.005C453 137.005 452.347 137.302 451.886 137.897C451.424 138.491 451.195 139.287 451.198 140.286C451.198 141.285 451.428 142.082 451.886 142.676C452.344 143.27 452.997 143.566 453.845 143.562ZM453.845 138.74C454.417 138.74 454.704 139.254 454.704 140.283C454.704 141.312 454.417 141.826 453.845 141.826C453.272 141.826 452.985 141.312 452.985 140.283C452.985 139.254 453.272 138.74 453.845 138.74V138.74ZM456.891 138.224L457.054 138.814C457.088 138.938 457.17 139.045 457.281 139.11C457.392 139.176 457.525 139.196 457.651 139.165V139.165C457.724 139.148 457.8 139.147 457.874 139.164C457.947 139.18 458.016 139.212 458.075 139.259C458.134 139.305 458.182 139.364 458.215 139.432C458.248 139.499 458.266 139.574 458.266 139.649V142.923C458.266 142.988 458.278 143.053 458.303 143.113C458.328 143.173 458.365 143.228 458.411 143.274C458.457 143.321 458.512 143.357 458.572 143.382C458.632 143.407 458.697 143.42 458.762 143.42H459.565C459.697 143.42 459.824 143.368 459.917 143.275C460.011 143.181 460.063 143.055 460.063 142.923V137.639C460.063 137.574 460.05 137.51 460.025 137.449C460 137.389 459.963 137.335 459.917 137.289C459.871 137.242 459.816 137.206 459.755 137.181C459.695 137.156 459.63 137.144 459.565 137.144H458.627C458.568 137.143 458.51 137.153 458.455 137.173L457.2 137.624C457.083 137.667 456.986 137.752 456.928 137.864C456.871 137.975 456.858 138.104 456.891 138.224V138.224ZM464.354 137.005C463.508 137.005 462.855 137.302 462.393 137.897C461.932 138.491 461.702 139.287 461.706 140.286C461.706 141.285 461.935 142.082 462.393 142.676C462.851 143.27 463.505 143.568 464.354 143.568C465.197 143.568 465.85 143.27 466.313 142.676C466.775 142.082 467.005 141.285 467 140.286C467 139.289 466.771 138.492 466.313 137.897C465.854 137.301 465.201 137.004 464.354 137.005ZM464.354 141.829C463.781 141.829 463.495 141.315 463.495 140.286C463.495 139.258 463.781 138.743 464.354 138.743C464.927 138.743 465.213 139.258 465.213 140.286C465.213 141.315 464.927 141.828 464.354 141.824V141.829ZM425.395 148.171V151.442C425.395 151.574 425.447 151.701 425.541 151.794C425.635 151.888 425.762 151.94 425.895 151.94H426.692C426.825 151.94 426.952 151.888 427.046 151.794C427.139 151.701 427.192 151.574 427.192 151.442V146.163C427.192 146.031 427.139 145.904 427.046 145.81C426.952 145.717 426.825 145.664 426.692 145.664H425.738C425.68 145.664 425.622 145.674 425.567 145.693L424.314 146.144C424.199 146.19 424.105 146.277 424.05 146.388C423.996 146.5 423.985 146.627 424.02 146.746L424.182 147.332C424.216 147.457 424.298 147.564 424.41 147.63C424.522 147.696 424.655 147.716 424.781 147.685V147.685C424.855 147.668 424.931 147.668 425.004 147.685C425.078 147.701 425.146 147.734 425.205 147.78C425.264 147.827 425.312 147.886 425.345 147.954C425.378 148.021 425.395 148.096 425.395 148.171V148.171ZM432.593 151.191C433.051 150.597 433.28 149.8 433.28 148.801C433.28 147.803 433.051 147.007 432.593 146.413C432.135 145.819 431.482 145.521 430.634 145.52C429.786 145.519 429.133 145.817 428.675 146.413C428.217 147.008 427.988 147.804 427.988 148.801C427.988 149.799 428.217 150.596 428.675 151.191C429.133 151.786 429.786 152.083 430.634 152.084C431.482 152.086 432.135 151.788 432.593 151.191ZM429.78 148.801C429.78 147.773 430.066 147.259 430.639 147.259C431.212 147.259 431.498 147.773 431.498 148.801C431.498 149.83 431.212 150.344 430.639 150.344C430.066 150.344 429.78 149.83 429.78 148.801ZM436.564 151.442V146.163C436.564 146.031 436.511 145.904 436.417 145.81C436.323 145.717 436.196 145.664 436.064 145.664H435.127C435.069 145.664 435.011 145.674 434.955 145.693L433.703 146.144C433.584 146.187 433.486 146.272 433.428 146.384C433.37 146.496 433.357 146.625 433.39 146.746L433.552 147.332C433.586 147.459 433.669 147.567 433.782 147.633C433.896 147.699 434.031 147.718 434.158 147.685V147.685C434.232 147.668 434.308 147.667 434.382 147.683C434.456 147.699 434.525 147.732 434.584 147.779C434.644 147.825 434.692 147.885 434.725 147.953C434.758 148.021 434.775 148.095 434.775 148.171V151.442C434.775 151.574 434.828 151.701 434.921 151.794C435.015 151.888 435.142 151.94 435.275 151.94H436.072C436.203 151.938 436.328 151.885 436.42 151.791C436.512 151.698 436.564 151.572 436.564 151.442V151.442ZM441.975 151.191C442.433 150.597 442.662 149.8 442.662 148.801C442.662 147.803 442.433 147.007 441.975 146.413C441.516 145.819 440.863 145.521 440.014 145.52C439.165 145.519 438.512 145.817 438.055 146.413C437.597 147.008 437.368 147.804 437.368 148.801C437.368 149.799 437.597 150.596 438.055 151.191C438.513 151.786 439.166 152.083 440.014 152.084C440.862 152.086 441.515 151.788 441.975 151.191ZM440.014 150.344C439.441 150.344 439.155 149.83 439.155 148.801C439.155 147.773 439.441 147.259 440.014 147.259C440.587 147.259 440.873 147.773 440.873 148.801C440.873 149.83 440.587 150.344 440.014 150.344V150.344ZM445.937 152.091C446.782 152.091 447.435 151.794 447.896 151.198C448.356 150.603 448.585 149.806 448.583 148.808C448.583 147.811 448.354 147.015 447.896 146.42C447.438 145.826 446.785 145.528 445.937 145.527C445.092 145.527 444.439 145.825 443.978 146.42C443.518 147.016 443.289 147.812 443.291 148.808C443.291 149.808 443.52 150.605 443.978 151.198C444.436 151.791 445.089 152.089 445.937 152.091ZM445.937 147.267C446.51 147.267 446.796 147.781 446.796 148.81C446.796 149.839 446.51 150.353 445.937 150.353C445.364 150.353 445.078 149.839 445.078 148.81C445.078 147.781 445.364 147.265 445.937 147.26V147.267ZM450.623 148.171V151.442C450.623 151.574 450.676 151.701 450.769 151.794C450.863 151.888 450.99 151.94 451.123 151.94H451.92C452.053 151.94 452.18 151.888 452.274 151.794C452.367 151.701 452.42 151.574 452.42 151.442V146.163C452.42 146.031 452.367 145.904 452.274 145.81C452.18 145.717 452.053 145.664 451.92 145.664H450.98C450.922 145.664 450.864 145.674 450.808 145.693L449.556 146.144C449.437 146.187 449.339 146.272 449.281 146.384C449.223 146.496 449.21 146.625 449.243 146.746L449.405 147.332C449.439 147.457 449.521 147.564 449.633 147.63C449.745 147.696 449.878 147.716 450.004 147.685V147.685C450.078 147.668 450.155 147.667 450.229 147.683C450.303 147.699 450.372 147.731 450.432 147.778C450.491 147.825 450.54 147.884 450.573 147.952C450.606 148.02 450.623 148.095 450.623 148.171V148.171ZM456.111 145.664H455.171C455.113 145.664 455.055 145.674 454.999 145.693L453.747 146.144C453.628 146.187 453.53 146.272 453.472 146.384C453.414 146.496 453.401 146.625 453.434 146.746L453.595 147.332C453.63 147.457 453.712 147.564 453.824 147.63C453.936 147.696 454.069 147.716 454.195 147.685V147.685C454.269 147.668 454.345 147.667 454.419 147.683C454.493 147.699 454.562 147.732 454.622 147.779C454.681 147.825 454.729 147.885 454.762 147.953C454.795 148.021 454.812 148.095 454.812 148.171V151.442C454.812 151.574 454.865 151.701 454.958 151.794C455.052 151.888 455.179 151.94 455.312 151.94H456.109C456.242 151.94 456.369 151.888 456.463 151.794C456.557 151.701 456.609 151.574 456.609 151.442V146.163C456.609 146.031 456.557 145.904 456.464 145.811C456.37 145.717 456.243 145.665 456.111 145.664V145.664ZM465.967 145.664H465.027C464.969 145.664 464.911 145.674 464.855 145.693L463.603 146.144C463.484 146.187 463.386 146.272 463.328 146.384C463.27 146.496 463.257 146.625 463.29 146.746L463.453 147.332C463.487 147.459 463.569 147.567 463.682 147.633C463.795 147.699 463.93 147.718 464.056 147.685V147.685C464.13 147.668 464.207 147.667 464.28 147.683C464.354 147.699 464.424 147.732 464.483 147.779C464.542 147.825 464.59 147.885 464.623 147.953C464.656 148.021 464.673 148.095 464.673 148.171V151.442C464.673 151.574 464.726 151.701 464.82 151.794C464.914 151.888 465.041 151.94 465.173 151.94H465.971C466.103 151.94 466.23 151.888 466.324 151.794C466.418 151.701 466.471 151.574 466.471 151.442V146.163C466.471 146.097 466.458 146.032 466.432 145.971C466.407 145.911 466.37 145.856 466.323 145.809C466.276 145.763 466.221 145.726 466.16 145.701C466.099 145.676 466.033 145.664 465.967 145.664V145.664ZM458.365 146.413C457.907 147.008 457.678 147.804 457.678 148.801C457.678 149.799 457.907 150.596 458.365 151.191C458.824 151.786 459.477 152.083 460.324 152.084C461.172 152.086 461.825 151.788 462.283 151.191C462.741 150.597 462.971 149.8 462.971 148.801C462.971 147.803 462.741 147.007 462.283 146.413C461.825 145.819 461.172 145.521 460.324 145.52C459.477 145.519 458.824 145.817 458.365 146.413ZM460.324 147.26C460.897 147.26 461.183 147.775 461.183 148.803C461.183 149.832 460.897 150.346 460.324 150.346C459.752 150.346 459.465 149.832 459.465 148.803C459.465 147.775 459.752 147.26 460.324 147.26ZM429.371 157.5C429.371 156.502 429.142 155.706 428.684 155.11C428.225 154.515 427.572 154.218 426.725 154.219C425.879 154.219 425.226 154.516 424.766 155.11C424.305 155.705 424.076 156.501 424.079 157.5C424.079 158.498 424.308 159.294 424.766 159.89C425.224 160.485 425.877 160.782 426.725 160.781C427.568 160.781 428.221 160.484 428.684 159.89C429.146 159.295 429.375 158.499 429.371 157.5ZM426.72 159.043C426.147 159.043 425.86 158.529 425.86 157.5C425.86 156.471 426.147 155.957 426.72 155.957C427.292 155.957 427.579 156.471 427.579 157.5C427.579 158.529 427.292 159.043 426.72 159.043ZM432.747 154.219C431.902 154.219 431.249 154.516 430.789 155.11C430.328 155.705 430.099 156.501 430.101 157.5C430.101 158.498 430.33 159.294 430.789 159.89C431.247 160.485 431.9 160.782 432.747 160.781C433.59 160.781 434.243 160.484 434.706 159.89C435.169 159.295 435.398 158.499 435.394 157.5C435.394 156.502 435.164 155.706 434.706 155.11C434.248 154.515 433.595 154.218 432.747 154.219ZM432.747 159.043C432.175 159.043 431.888 158.529 431.888 157.5C431.888 156.471 432.175 155.957 432.747 155.957C433.32 155.957 433.607 156.471 433.607 157.5C433.607 158.529 433.32 159.043 432.747 159.043ZM436.632 155.11C436.174 155.705 435.945 156.501 435.945 157.5C435.945 158.499 436.174 159.295 436.632 159.89C437.091 160.484 437.744 160.781 438.591 160.781C439.439 160.781 440.092 160.484 440.55 159.89C441.008 159.295 441.237 158.499 441.237 157.5C441.237 156.501 441.008 155.705 440.55 155.11C440.092 154.515 439.439 154.218 438.591 154.219C437.744 154.22 437.091 154.517 436.632 155.11ZM438.591 155.959C439.164 155.959 439.45 156.473 439.45 157.502C439.45 158.53 439.164 159.045 438.591 159.045C438.019 159.045 437.732 158.53 437.732 157.502C437.732 156.473 438.019 155.959 438.591 155.959V155.959ZM444.812 160.138V154.862C444.812 154.729 444.759 154.602 444.665 154.509C444.571 154.415 444.444 154.363 444.312 154.363H443.372C443.313 154.362 443.255 154.372 443.2 154.392L441.947 154.843C441.829 154.885 441.731 154.971 441.673 155.083C441.615 155.194 441.601 155.323 441.634 155.445L441.798 156.031C441.833 156.157 441.917 156.263 442.031 156.328C442.145 156.393 442.279 156.41 442.406 156.377V156.377C442.479 156.359 442.556 156.359 442.63 156.375C442.704 156.391 442.773 156.424 442.832 156.47C442.892 156.517 442.94 156.577 442.973 156.644C443.006 156.712 443.023 156.787 443.023 156.862V160.132C443.023 160.264 443.075 160.391 443.169 160.485C443.263 160.579 443.39 160.632 443.523 160.632H444.32C444.45 160.63 444.575 160.577 444.666 160.485C444.758 160.393 444.81 160.268 444.812 160.138V160.138ZM448.551 154.219C447.705 154.219 447.052 154.516 446.592 155.11C446.131 155.705 445.902 156.501 445.904 157.5C445.904 158.498 446.133 159.294 446.592 159.89C447.05 160.485 447.703 160.782 448.551 160.781C449.395 160.781 450.048 160.484 450.509 159.89C450.971 159.295 451.2 158.499 451.197 157.5C451.197 156.502 450.968 155.706 450.509 155.11C450.051 154.515 449.398 154.218 448.551 154.219ZM448.551 159.043C447.978 159.043 447.691 158.529 447.691 157.5C447.691 156.471 447.978 155.957 448.551 155.957C449.123 155.957 449.41 156.471 449.41 157.5C449.41 158.529 449.123 159.043 448.551 159.043ZM454.394 160.781C455.24 160.781 455.893 160.484 456.353 159.89C456.814 159.295 457.043 158.499 457.041 157.5C457.041 156.502 456.812 155.706 456.353 155.11C455.895 154.515 455.242 154.218 454.394 154.219C453.549 154.219 452.896 154.516 452.436 155.11C451.975 155.705 451.746 156.501 451.748 157.5C451.748 158.498 451.977 159.294 452.436 159.89C452.894 160.485 453.547 160.782 454.394 160.781ZM454.394 155.959C454.967 155.959 455.254 156.473 455.254 157.502C455.254 158.53 454.967 159.045 454.394 159.045C453.822 159.045 453.535 158.53 453.535 157.502C453.535 156.473 453.822 155.959 454.394 155.959ZM458.819 156.869V160.138C458.819 160.271 458.872 160.398 458.965 160.492C459.059 160.586 459.186 160.638 459.319 160.639H460.116C460.182 160.639 460.247 160.626 460.308 160.601C460.369 160.576 460.424 160.539 460.471 160.492C460.517 160.446 460.554 160.391 460.579 160.33C460.604 160.269 460.617 160.204 460.616 160.138V154.862C460.616 154.729 460.564 154.602 460.47 154.509C460.376 154.415 460.249 154.363 460.116 154.363H459.177C459.118 154.362 459.06 154.372 459.005 154.392L457.752 154.843C457.634 154.885 457.536 154.971 457.478 155.083C457.42 155.194 457.406 155.323 457.439 155.445L457.603 156.031C457.637 156.156 457.718 156.262 457.83 156.328C457.942 156.394 458.074 156.414 458.201 156.384V156.384C458.274 156.366 458.351 156.365 458.425 156.381C458.499 156.397 458.569 156.43 458.628 156.476C458.688 156.523 458.736 156.583 458.769 156.651C458.802 156.719 458.819 156.794 458.819 156.869V156.869ZM466.313 159.89C466.771 159.295 467 158.499 467 157.5C467 156.501 466.771 155.705 466.313 155.11C465.854 154.515 465.201 154.218 464.354 154.219C463.506 154.22 462.853 154.517 462.393 155.11C461.935 155.705 461.706 156.501 461.706 157.5C461.706 158.499 461.935 159.295 462.393 159.89C462.851 160.484 463.505 160.781 464.354 160.781C465.203 160.781 465.856 160.484 466.313 159.89ZM463.5 157.5C463.5 156.471 463.786 155.957 464.359 155.957C464.932 155.957 465.218 156.471 465.218 157.5C465.218 158.529 464.932 159.043 464.359 159.043C463.786 159.043 463.5 158.529 463.5 157.5ZM425.395 165.389V168.66C425.395 168.793 425.447 168.92 425.541 169.013C425.635 169.107 425.762 169.159 425.895 169.159H426.692C426.825 169.159 426.951 169.106 427.045 169.013C427.139 168.919 427.192 168.792 427.192 168.66V163.382C427.19 163.25 427.135 163.125 427.041 163.033C426.946 162.941 426.819 162.89 426.687 162.892H425.738C425.68 162.891 425.622 162.901 425.567 162.921L424.314 163.372C424.201 163.417 424.108 163.503 424.054 163.612C424 163.722 423.988 163.847 424.02 163.965L424.182 164.551C424.216 164.676 424.298 164.782 424.41 164.848C424.522 164.914 424.655 164.934 424.781 164.904V164.904C424.855 164.887 424.931 164.887 425.004 164.903C425.078 164.92 425.146 164.953 425.205 164.999C425.264 165.046 425.312 165.105 425.345 165.173C425.378 165.24 425.395 165.314 425.395 165.389V165.389ZM431.301 168.66V163.382C431.298 163.251 431.245 163.126 431.151 163.035C431.058 162.943 430.932 162.892 430.801 162.892H429.862C429.804 162.891 429.746 162.901 429.691 162.921L428.438 163.372C428.319 163.414 428.221 163.499 428.163 163.611C428.105 163.723 428.091 163.852 428.125 163.973L428.287 164.56C428.321 164.684 428.403 164.791 428.515 164.857C428.627 164.923 428.76 164.943 428.886 164.913C428.96 164.895 429.036 164.894 429.11 164.911C429.184 164.927 429.253 164.959 429.313 165.006C429.372 165.053 429.42 165.112 429.453 165.18C429.486 165.248 429.503 165.322 429.503 165.398V168.669C429.503 168.801 429.556 168.928 429.65 169.022C429.743 169.115 429.871 169.168 430.003 169.168H430.801C430.867 169.168 430.932 169.154 430.994 169.129C431.055 169.103 431.11 169.065 431.157 169.018C431.203 168.971 431.24 168.915 431.265 168.854C431.289 168.792 431.301 168.726 431.301 168.66ZM435.23 168.66V163.382C435.228 163.251 435.174 163.126 435.081 163.035C434.987 162.943 434.861 162.892 434.73 162.892H433.79C433.732 162.891 433.674 162.901 433.619 162.921L432.366 163.372C432.247 163.414 432.149 163.5 432.091 163.611C432.033 163.723 432.02 163.852 432.053 163.973L432.216 164.56C432.25 164.685 432.332 164.791 432.444 164.857C432.555 164.923 432.688 164.943 432.814 164.913V164.913C432.888 164.895 432.964 164.894 433.038 164.911C433.112 164.927 433.181 164.959 433.241 165.006C433.3 165.053 433.348 165.112 433.381 165.18C433.414 165.248 433.431 165.322 433.431 165.398V168.669C433.432 168.801 433.485 168.928 433.578 169.021C433.672 169.115 433.799 169.167 433.931 169.168H434.729C434.795 169.168 434.861 169.155 434.922 169.129C434.984 169.104 435.04 169.066 435.086 169.019C435.133 168.972 435.17 168.916 435.195 168.854C435.219 168.793 435.231 168.727 435.23 168.66V168.66ZM438.6 162.739C437.757 162.739 437.104 163.037 436.641 163.632C436.178 164.228 435.949 165.024 435.954 166.02C435.954 167.02 436.183 167.817 436.641 168.41C437.099 169.003 437.752 169.301 438.6 169.303C439.445 169.303 440.099 169.005 440.56 168.41C441.022 167.815 441.251 167.018 441.248 166.02C441.248 165.022 441.019 164.226 440.56 163.632C440.102 163.038 439.449 162.74 438.6 162.739ZM438.6 167.563C438.027 167.563 437.741 167.049 437.741 166.02C437.741 164.992 438.027 164.477 438.6 164.477C439.173 164.477 439.459 164.992 439.459 166.02C439.459 167.049 439.173 167.563 438.6 167.563ZM444.262 169.303C445.107 169.303 445.76 169.005 446.221 168.41C446.681 167.815 446.91 167.018 446.908 166.02C446.908 165.022 446.679 164.226 446.221 163.632C445.762 163.038 445.109 162.74 444.262 162.739C443.417 162.739 442.764 163.037 442.303 163.632C441.841 164.228 441.612 165.024 441.616 166.02C441.616 167.02 441.845 167.817 442.303 168.41C442.761 169.003 443.414 169.301 444.262 169.303ZM444.262 164.479C444.834 164.479 445.121 164.993 445.121 166.022C445.121 167.051 444.834 167.565 444.262 167.565C443.689 167.565 443.403 167.051 443.403 166.022C443.403 164.993 443.689 164.479 444.262 164.479ZM450.31 168.66V163.382C450.309 163.316 450.295 163.251 450.268 163.19C450.242 163.129 450.203 163.075 450.155 163.029C450.107 162.984 450.051 162.948 449.989 162.924C449.927 162.901 449.861 162.89 449.795 162.892H448.855C448.796 162.891 448.738 162.901 448.683 162.921L447.43 163.372C447.312 163.414 447.214 163.5 447.156 163.611C447.098 163.723 447.084 163.852 447.117 163.973L447.279 164.56C447.314 164.684 447.396 164.791 447.507 164.857C447.619 164.923 447.752 164.943 447.879 164.913C447.952 164.895 448.029 164.894 448.103 164.911C448.177 164.927 448.246 164.959 448.305 165.006C448.364 165.053 448.412 165.112 448.445 165.18C448.478 165.248 448.496 165.322 448.496 165.398V168.669C448.496 168.801 448.548 168.928 448.642 169.022C448.736 169.115 448.863 169.168 448.996 169.168H449.795C449.862 169.17 449.93 169.158 449.992 169.133C450.055 169.108 450.113 169.071 450.161 169.024C450.209 168.976 450.247 168.92 450.273 168.857C450.298 168.795 450.311 168.728 450.31 168.66V168.66ZM466.462 168.66V163.382C466.462 163.25 466.409 163.123 466.316 163.029C466.222 162.936 466.095 162.883 465.962 162.883H465.022C464.964 162.883 464.906 162.893 464.85 162.912L463.598 163.363C463.479 163.406 463.381 163.491 463.323 163.603C463.265 163.714 463.252 163.844 463.285 163.965L463.448 164.551C463.482 164.676 463.564 164.783 463.675 164.849C463.787 164.915 463.92 164.935 464.046 164.904V164.904C464.12 164.887 464.196 164.886 464.27 164.902C464.344 164.918 464.413 164.951 464.473 164.997C464.532 165.044 464.58 165.104 464.613 165.172C464.646 165.239 464.663 165.314 464.663 165.389V168.66C464.664 168.792 464.716 168.919 464.81 169.013C464.904 169.106 465.031 169.159 465.163 169.159H465.96C466.026 169.159 466.091 169.147 466.152 169.122C466.213 169.097 466.268 169.06 466.315 169.014C466.362 168.967 466.399 168.912 466.424 168.852C466.449 168.791 466.462 168.726 466.462 168.66V168.66ZM453.855 162.739C453.01 162.739 452.357 163.037 451.896 163.632C451.436 164.228 451.206 165.024 451.209 166.02C451.209 167.02 451.438 167.817 451.896 168.41C452.354 169.003 453.007 169.301 453.855 169.303C454.699 169.303 455.352 169.005 455.814 168.41C456.275 167.815 456.505 167.018 456.501 166.02C456.501 165.022 456.272 164.226 455.814 163.632C455.356 163.038 454.703 162.74 453.855 162.739ZM453.855 167.563C453.282 167.563 452.996 167.049 452.996 166.02C452.996 164.992 453.282 164.477 453.855 164.477C454.428 164.477 454.714 164.992 454.714 166.02C454.714 167.049 454.428 167.563 453.855 167.563ZM459.883 169.303C460.726 169.303 461.379 169.005 461.842 168.41C462.304 167.815 462.534 167.018 462.529 166.02C462.529 165.022 462.3 164.226 461.842 163.632C461.383 163.038 460.73 162.74 459.883 162.739C459.037 162.739 458.384 163.037 457.922 163.632C457.461 164.228 457.231 165.024 457.235 166.02C457.235 167.02 457.464 167.817 457.922 168.41C458.38 169.003 459.034 169.301 459.883 169.303ZM459.883 164.479C460.456 164.479 460.742 164.993 460.742 166.022C460.742 167.051 460.456 167.565 459.883 167.565C459.31 167.565 459.024 167.051 459.024 166.022C459.024 164.993 459.31 164.479 459.883 164.479ZM426.72 171.438C425.874 171.438 425.221 171.735 424.761 172.329C424.3 172.923 424.071 173.72 424.073 174.719C424.073 175.719 424.302 176.515 424.761 177.109C425.219 177.702 425.872 177.999 426.72 178C427.563 178 428.216 177.703 428.678 177.109C429.141 176.514 429.37 175.718 429.366 174.719C429.366 173.721 429.137 172.924 428.678 172.329C428.22 171.734 427.567 171.436 426.72 171.438ZM426.72 176.262C426.147 176.262 425.86 175.747 425.86 174.719C425.86 173.69 426.147 173.176 426.72 173.176C427.292 173.176 427.579 173.69 427.579 174.719C427.579 175.747 427.292 176.262 426.72 176.263V176.262ZM432.564 171.438C431.72 171.438 431.067 171.735 430.605 172.329C430.142 172.923 429.913 173.72 429.917 174.719C429.917 175.719 430.146 176.515 430.605 177.109C431.063 177.702 431.716 177.999 432.564 178C433.409 178 434.062 177.703 434.522 177.109C434.983 176.514 435.212 175.718 435.21 174.719C435.21 173.721 434.981 172.924 434.522 172.329C434.064 171.734 433.411 171.436 432.564 171.438ZM432.564 176.262C431.991 176.262 431.704 175.747 431.704 174.719C431.704 173.69 431.991 173.176 432.564 173.176C433.136 173.176 433.423 173.69 433.423 174.719C433.423 175.747 433.136 176.262 432.564 176.263V176.262ZM438.591 171.438C437.746 171.438 437.093 171.735 436.632 172.329C436.172 172.923 435.943 173.72 435.945 174.719C435.945 175.719 436.174 176.515 436.632 177.109C437.091 177.702 437.744 177.999 438.591 178C439.437 178 440.09 177.703 440.55 177.109C441.011 176.514 441.24 175.718 441.237 174.719C441.237 173.721 441.008 172.924 440.55 172.329C440.092 171.734 439.439 171.436 438.591 171.438ZM438.591 176.262C438.019 176.262 437.732 175.747 437.732 174.719C437.732 173.69 438.019 173.176 438.591 173.176C439.164 173.176 439.45 173.69 439.45 174.719C439.45 175.747 439.164 176.262 438.591 176.263V176.262ZM441.638 172.663L441.801 173.25C441.835 173.374 441.917 173.481 442.029 173.547C442.14 173.613 442.273 173.633 442.399 173.603C442.473 173.585 442.549 173.584 442.623 173.6C442.697 173.617 442.766 173.649 442.825 173.696C442.885 173.743 442.933 173.802 442.966 173.87C442.999 173.938 443.016 174.012 443.016 174.088V177.359C443.016 177.491 443.069 177.618 443.163 177.711C443.257 177.805 443.383 177.857 443.516 177.858H444.313C444.446 177.858 444.573 177.805 444.667 177.712C444.761 177.618 444.813 177.491 444.813 177.359V172.08C444.813 171.948 444.761 171.821 444.667 171.728C444.573 171.634 444.446 171.582 444.313 171.582H443.373C443.315 171.581 443.257 171.591 443.201 171.611L441.949 172.062C441.831 172.104 441.733 172.19 441.675 172.302C441.618 172.413 441.604 172.542 441.638 172.663ZM448.367 171.438C447.521 171.438 446.868 171.735 446.408 172.329C445.947 172.923 445.718 173.72 445.721 174.719C445.721 175.719 445.95 176.515 446.408 177.109C446.866 177.702 447.519 177.999 448.367 178C449.212 178 449.865 177.703 450.326 177.109C450.786 176.514 451.015 175.718 451.013 174.719C451.013 173.721 450.784 172.924 450.326 172.329C449.867 171.734 449.214 171.436 448.367 171.438ZM448.367 176.262C447.794 176.262 447.508 175.747 447.508 174.719C447.508 173.69 447.794 173.176 448.367 173.176C448.939 173.176 449.226 173.69 449.226 174.719C449.226 175.747 448.939 176.262 448.367 176.263V176.262ZM454.394 171.438C453.549 171.438 452.896 171.735 452.436 172.329C451.975 172.923 451.746 173.72 451.748 174.719C451.748 175.719 451.977 176.515 452.436 177.109C452.894 177.702 453.547 177.999 454.394 178C455.24 178 455.893 177.703 456.353 177.109C456.814 176.514 457.043 175.718 457.041 174.719C457.041 173.721 456.812 172.924 456.353 172.329C455.895 171.734 455.242 171.436 454.394 171.438ZM454.394 176.262C453.822 176.262 453.535 175.747 453.535 174.719C453.535 173.69 453.822 173.176 454.394 173.176C454.967 173.176 455.254 173.69 455.254 174.719C455.254 175.747 454.967 176.262 454.394 176.263V176.262ZM457.441 172.663L457.604 173.25C457.639 173.374 457.72 173.481 457.832 173.547C457.943 173.613 458.076 173.633 458.202 173.603V173.603C458.276 173.585 458.352 173.584 458.426 173.6C458.5 173.617 458.569 173.649 458.629 173.696C458.688 173.743 458.736 173.802 458.769 173.87C458.802 173.938 458.819 174.012 458.819 174.088V177.359C458.82 177.491 458.872 177.618 458.966 177.711C459.06 177.805 459.187 177.857 459.319 177.858H460.116C460.249 177.858 460.376 177.805 460.47 177.712C460.564 177.618 460.616 177.491 460.616 177.359V172.08C460.616 171.948 460.564 171.821 460.47 171.728C460.376 171.634 460.249 171.582 460.116 171.582H459.177C459.118 171.581 459.06 171.591 459.005 171.611L457.752 172.062C457.634 172.104 457.536 172.19 457.479 172.302C457.421 172.413 457.408 172.542 457.441 172.663V172.663ZM464.354 171.438C463.508 171.438 462.855 171.735 462.393 172.329C461.932 172.923 461.702 173.72 461.706 174.719C461.706 175.719 461.935 176.515 462.393 177.109C462.851 177.702 463.505 177.999 464.354 178C465.197 178 465.85 177.703 466.313 177.109C466.775 176.514 467.005 175.718 467 174.719C467 173.721 466.771 172.924 466.313 172.329C465.854 171.734 465.201 171.436 464.354 171.438ZM464.354 176.262C463.781 176.262 463.495 175.747 463.495 174.719C463.495 173.69 463.781 173.176 464.354 173.176C464.927 173.176 465.213 173.69 465.213 174.719C465.213 175.747 464.927 176.262 464.354 176.263V176.262Z" fill="black" fill-opacity="0.15"/>
<path d="M429.371 98.2812C429.371 97.2835 429.142 96.4869 428.684 95.8915C428.225 95.296 427.571 95.0006 426.72 95.0051C425.874 95.0051 425.221 95.3023 424.761 95.8966C424.3 96.4909 424.071 97.2875 424.073 98.2864C424.073 99.2853 424.302 100.082 424.761 100.676C425.219 101.27 425.872 101.568 426.72 101.568C427.563 101.568 428.216 101.27 428.678 100.676C429.141 100.082 429.372 99.2836 429.371 98.2812ZM426.72 99.8241C426.147 99.8241 425.86 99.3098 425.86 98.2812C425.86 97.2526 426.147 96.7383 426.72 96.7383C427.292 96.7383 427.579 97.2526 427.579 98.2812C427.579 99.3098 427.292 99.8241 426.72 99.8241ZM434.34 100.671C434.798 100.077 435.028 99.2801 435.028 98.2812C435.028 97.2824 434.798 96.4858 434.34 95.8915C433.875 95.3006 433.222 95.0051 432.381 95.0051C431.541 95.0051 430.887 95.3023 430.421 95.8966C429.963 96.4909 429.733 97.2875 429.733 98.2864C429.733 99.2853 429.963 100.082 430.421 100.676C430.879 101.27 431.533 101.568 432.381 101.568C433.23 101.568 433.883 101.269 434.34 100.671ZM432.381 99.8241C431.809 99.8241 431.522 99.3098 431.522 98.2812C431.522 97.2526 431.809 96.7383 432.381 96.7383C432.954 96.7383 433.241 97.2526 433.241 98.2812C433.241 99.3098 432.954 99.8241 432.381 99.8241ZM440.184 100.671C440.642 100.077 440.871 99.2801 440.871 98.2812C440.871 97.2824 440.642 96.4858 440.184 95.8915C439.726 95.2983 439.073 95.0011 438.225 95C437.378 94.9989 436.725 95.296 436.266 95.8915C435.808 96.4858 435.579 97.2824 435.579 98.2812C435.579 99.2801 435.808 100.077 436.266 100.671C436.725 101.265 437.378 101.562 438.225 101.562C439.073 101.562 439.726 101.265 440.184 100.671ZM438.225 99.8241C437.653 99.8241 437.366 99.3098 437.366 98.2812C437.366 97.2526 437.653 96.7383 438.225 96.7383C438.798 96.7383 439.084 97.2526 439.084 98.2812C439.084 99.3098 438.798 99.8241 438.225 99.8241ZM442.031 97.1652C442.105 97.1479 442.181 97.1473 442.254 97.1635C442.328 97.1797 442.396 97.2123 442.455 97.2588C442.514 97.3053 442.562 97.3645 442.595 97.432C442.628 97.4996 442.645 97.5736 442.645 97.6486V100.923C442.645 101.055 442.697 101.181 442.791 101.275C442.884 101.368 443.011 101.42 443.143 101.42H443.952C444.085 101.42 444.211 101.368 444.305 101.275C444.398 101.181 444.451 101.055 444.451 100.923V95.6394C444.451 95.5742 444.438 95.5097 444.413 95.4495C444.388 95.3892 444.351 95.3345 444.305 95.2885C444.258 95.2425 444.203 95.206 444.143 95.1812C444.083 95.1564 444.018 95.1438 443.952 95.144H443.007C442.949 95.1432 442.891 95.153 442.835 95.1732L441.581 95.624C441.463 95.6669 441.366 95.7524 441.308 95.8635C441.251 95.9747 441.237 96.1033 441.27 96.224L441.433 96.8138C441.467 96.9386 441.549 97.0453 441.661 97.111C441.772 97.1767 441.905 97.1961 442.031 97.1652ZM450.654 98.2812C450.654 97.2835 450.425 96.4869 449.966 95.8915C449.508 95.296 448.853 95.0006 448.001 95.0051C447.155 95.0051 446.502 95.3023 446.042 95.8966C445.581 96.4909 445.352 97.2875 445.355 98.2864C445.355 99.2853 445.584 100.082 446.042 100.676C446.5 101.27 447.153 101.568 448.001 101.568C448.846 101.568 449.499 101.27 449.96 100.676C450.42 100.082 450.651 99.2836 450.654 98.2812ZM448.002 99.8241C447.43 99.8241 447.143 99.3098 447.143 98.2812C447.143 97.2526 447.43 96.7383 448.002 96.7383C448.575 96.7383 448.862 97.2526 448.862 98.2812C448.862 99.3098 448.575 99.8241 448.001 99.8241H448.002ZM453.845 101.562C454.69 101.562 455.344 101.265 455.805 100.671C456.267 100.077 456.496 99.2801 456.493 98.2812C456.493 97.2835 456.263 96.4869 455.805 95.8915C455.347 95.296 454.693 95.0006 453.845 95.0051C453 95.0051 452.347 95.3023 451.886 95.8966C451.424 96.4909 451.195 97.2875 451.198 98.2864C451.198 99.2853 451.428 100.082 451.886 100.676C452.344 101.27 452.997 101.566 453.845 101.562ZM453.845 96.7401C454.417 96.7401 454.704 97.2544 454.704 98.283C454.704 99.3116 454.417 99.8259 453.845 99.8259C453.272 99.8259 452.985 99.3116 452.985 98.283C452.985 97.2544 453.272 96.7401 453.845 96.7401ZM456.891 96.224L457.054 96.8138C457.088 96.9383 457.17 97.0447 457.281 97.1103C457.392 97.1759 457.525 97.1956 457.651 97.1652C457.724 97.1479 457.8 97.1473 457.874 97.1635C457.947 97.1798 458.016 97.2123 458.075 97.2588C458.134 97.3053 458.182 97.3645 458.215 97.432C458.248 97.4995 458.266 97.5735 458.266 97.6486V100.923C458.266 100.988 458.278 101.053 458.303 101.113C458.328 101.173 458.365 101.228 458.411 101.274C458.457 101.321 458.512 101.357 458.572 101.382C458.632 101.407 458.697 101.42 458.762 101.42H459.565C459.697 101.42 459.824 101.368 459.917 101.275C460.011 101.181 460.063 101.055 460.063 100.923V95.6394C460.063 95.5742 460.05 95.5097 460.025 95.4495C460 95.3892 459.963 95.3345 459.917 95.2885C459.871 95.2425 459.816 95.206 459.755 95.1812C459.695 95.1564 459.63 95.1438 459.565 95.144H458.627C458.568 95.1429 458.51 95.1528 458.455 95.1732L457.2 95.624C457.083 95.6669 456.986 95.7525 456.928 95.8637C456.871 95.9749 456.858 96.1035 456.891 96.224ZM464.354 95.0051C463.508 95.0051 462.855 95.3023 462.393 95.8966C461.932 96.4909 461.702 97.2875 461.706 98.2864C461.706 99.2853 461.935 100.082 462.393 100.676C462.851 101.27 463.505 101.568 464.354 101.568C465.197 101.568 465.85 101.27 466.313 100.676C466.775 100.082 467.005 99.2853 467 98.2864C467 97.2886 466.771 96.492 466.313 95.8966C465.854 95.3012 465.201 95.004 464.354 95.0051ZM464.354 99.8293C463.781 99.8293 463.495 99.315 463.495 98.2864C463.495 97.2578 463.781 96.7435 464.354 96.7435C464.927 96.7435 465.213 97.2578 465.213 98.2864C465.213 99.315 464.927 99.8276 464.354 99.8241V99.8293ZM425.395 106.171V109.442C425.395 109.574 425.447 109.701 425.541 109.794C425.635 109.888 425.762 109.94 425.895 109.94H426.692C426.825 109.94 426.952 109.888 427.046 109.794C427.139 109.701 427.192 109.574 427.192 109.442V104.163C427.192 104.031 427.139 103.904 427.046 103.81C426.952 103.717 426.825 103.664 426.692 103.664H425.738C425.68 103.664 425.622 103.674 425.567 103.693L424.314 104.144C424.199 104.19 424.105 104.277 424.05 104.388C423.996 104.5 423.985 104.627 424.02 104.746L424.182 105.332C424.216 105.457 424.298 105.564 424.41 105.63C424.522 105.696 424.655 105.716 424.781 105.685C424.855 105.668 424.931 105.668 425.004 105.685C425.078 105.701 425.146 105.734 425.205 105.78C425.264 105.827 425.312 105.886 425.345 105.954C425.378 106.021 425.395 106.096 425.395 106.171ZM432.593 109.191C433.051 108.597 433.28 107.8 433.28 106.801C433.28 105.803 433.051 105.007 432.593 104.413C432.135 103.819 431.482 103.521 430.634 103.52C429.786 103.519 429.133 103.817 428.675 104.413C428.217 105.008 427.988 105.804 427.988 106.801C427.988 107.799 428.217 108.596 428.675 109.191C429.133 109.786 429.786 110.083 430.634 110.084C431.482 110.086 432.135 109.788 432.593 109.191ZM429.78 106.801C429.78 105.773 430.066 105.259 430.639 105.259C431.212 105.259 431.498 105.773 431.498 106.801C431.498 107.83 431.212 108.344 430.639 108.344C430.066 108.344 429.78 107.83 429.78 106.801ZM436.564 109.442V104.163C436.564 104.031 436.511 103.904 436.417 103.81C436.323 103.717 436.196 103.664 436.064 103.664H435.127C435.069 103.664 435.011 103.674 434.955 103.693L433.703 104.144C433.584 104.187 433.486 104.272 433.428 104.384C433.37 104.496 433.357 104.625 433.39 104.746L433.552 105.332C433.586 105.459 433.669 105.567 433.782 105.633C433.896 105.699 434.031 105.718 434.158 105.685C434.232 105.668 434.308 105.667 434.382 105.683C434.456 105.699 434.525 105.732 434.584 105.779C434.644 105.825 434.692 105.885 434.725 105.953C434.758 106.021 434.775 106.095 434.775 106.171V109.442C434.775 109.574 434.828 109.701 434.921 109.794C435.015 109.888 435.142 109.94 435.275 109.94H436.072C436.203 109.938 436.328 109.885 436.42 109.791C436.512 109.698 436.564 109.572 436.564 109.442ZM441.975 109.191C442.433 108.597 442.662 107.8 442.662 106.801C442.662 105.803 442.433 105.007 441.975 104.413C441.516 103.819 440.863 103.521 440.014 103.52C439.165 103.519 438.512 103.817 438.055 104.413C437.597 105.008 437.368 105.804 437.368 106.801C437.368 107.799 437.597 108.596 438.055 109.191C438.513 109.786 439.166 110.083 440.014 110.084C440.862 110.086 441.515 109.788 441.975 109.191ZM440.014 108.344C439.441 108.344 439.155 107.83 439.155 106.801C439.155 105.773 439.441 105.259 440.014 105.259C440.587 105.259 440.873 105.773 440.873 106.801C440.873 107.83 440.587 108.344 440.014 108.344ZM445.937 110.091C446.782 110.091 447.435 109.794 447.896 109.198C448.356 108.603 448.585 107.806 448.583 106.808C448.583 105.811 448.354 105.015 447.896 104.42C447.438 103.826 446.785 103.528 445.937 103.527C445.092 103.527 444.439 103.825 443.978 104.42C443.518 105.016 443.289 105.812 443.291 106.808C443.291 107.808 443.52 108.605 443.978 109.198C444.436 109.791 445.089 110.089 445.937 110.091ZM445.937 105.267C446.51 105.267 446.796 105.781 446.796 106.81C446.796 107.839 446.51 108.353 445.937 108.353C445.364 108.353 445.078 107.839 445.078 106.81C445.078 105.781 445.364 105.265 445.937 105.26V105.267ZM450.623 106.171V109.442C450.623 109.574 450.676 109.701 450.769 109.794C450.863 109.888 450.99 109.94 451.123 109.94H451.92C452.053 109.94 452.18 109.888 452.274 109.794C452.367 109.701 452.42 109.574 452.42 109.442V104.163C452.42 104.031 452.367 103.904 452.274 103.81C452.18 103.717 452.053 103.664 451.92 103.664H450.98C450.922 103.664 450.864 103.674 450.808 103.693L449.556 104.144C449.437 104.187 449.339 104.272 449.281 104.384C449.223 104.496 449.21 104.625 449.243 104.746L449.405 105.332C449.439 105.457 449.521 105.564 449.633 105.63C449.745 105.696 449.878 105.716 450.004 105.685C450.078 105.668 450.155 105.667 450.229 105.683C450.303 105.699 450.372 105.731 450.432 105.778C450.491 105.825 450.54 105.884 450.573 105.952C450.606 106.02 450.623 106.095 450.623 106.171ZM456.111 103.664H455.171C455.113 103.664 455.055 103.674 454.999 103.693L453.747 104.144C453.628 104.187 453.53 104.272 453.472 104.384C453.414 104.496 453.401 104.625 453.434 104.746L453.595 105.332C453.63 105.457 453.712 105.564 453.824 105.63C453.936 105.696 454.069 105.716 454.195 105.685C454.269 105.668 454.345 105.667 454.419 105.683C454.493 105.699 454.562 105.732 454.622 105.779C454.681 105.825 454.729 105.885 454.762 105.953C454.795 106.021 454.812 106.095 454.812 106.171V109.442C454.812 109.574 454.865 109.701 454.958 109.794C455.052 109.888 455.179 109.94 455.312 109.94H456.109C456.242 109.94 456.369 109.888 456.463 109.794C456.557 109.701 456.609 109.574 456.609 109.442V104.163C456.609 104.031 456.557 103.904 456.464 103.811C456.37 103.717 456.243 103.665 456.111 103.664ZM465.967 103.664H465.027C464.969 103.664 464.911 103.674 464.855 103.693L463.603 104.144C463.484 104.187 463.386 104.272 463.328 104.384C463.27 104.496 463.257 104.625 463.29 104.746L463.453 105.332C463.487 105.459 463.569 105.567 463.682 105.633C463.795 105.699 463.93 105.718 464.056 105.685C464.13 105.668 464.207 105.667 464.28 105.683C464.354 105.699 464.424 105.732 464.483 105.779C464.542 105.825 464.59 105.885 464.623 105.953C464.656 106.021 464.673 106.095 464.673 106.171V109.442C464.673 109.574 464.726 109.701 464.82 109.794C464.914 109.888 465.041 109.94 465.173 109.94H465.971C466.103 109.94 466.23 109.888 466.324 109.794C466.418 109.701 466.471 109.574 466.471 109.442V104.163C466.471 104.097 466.458 104.032 466.432 103.971C466.407 103.911 466.37 103.856 466.323 103.809C466.276 103.763 466.221 103.726 466.16 103.701C466.099 103.676 466.033 103.664 465.967 103.664ZM458.365 104.413C457.907 105.008 457.678 105.804 457.678 106.801C457.678 107.799 457.907 108.596 458.365 109.191C458.824 109.786 459.477 110.083 460.324 110.084C461.172 110.086 461.825 109.788 462.283 109.191C462.741 108.597 462.971 107.8 462.971 106.801C462.971 105.803 462.741 105.007 462.283 104.413C461.825 103.819 461.172 103.521 460.324 103.52C459.477 103.519 458.824 103.817 458.365 104.413ZM460.324 105.26C460.897 105.26 461.183 105.775 461.183 106.803C461.183 107.832 460.897 108.346 460.324 108.346C459.752 108.346 459.465 107.832 459.465 106.803C459.465 105.775 459.752 105.26 460.324 105.26ZM429.371 115.5C429.371 114.502 429.142 113.706 428.684 113.11C428.225 112.515 427.572 112.218 426.725 112.219C425.879 112.219 425.226 112.516 424.766 113.11C424.305 113.705 424.076 114.501 424.079 115.5C424.079 116.498 424.308 117.294 424.766 117.89C425.224 118.485 425.877 118.782 426.725 118.781C427.568 118.781 428.221 118.484 428.684 117.89C429.146 117.295 429.375 116.499 429.371 115.5ZM426.72 117.043C426.147 117.043 425.86 116.529 425.86 115.5C425.86 114.471 426.147 113.957 426.72 113.957C427.292 113.957 427.579 114.471 427.579 115.5C427.579 116.529 427.292 117.043 426.72 117.043ZM432.747 112.219C431.902 112.219 431.249 112.516 430.789 113.11C430.328 113.705 430.099 114.501 430.101 115.5C430.101 116.498 430.33 117.294 430.789 117.89C431.247 118.485 431.9 118.782 432.747 118.781C433.59 118.781 434.243 118.484 434.706 117.89C435.169 117.295 435.398 116.499 435.394 115.5C435.394 114.502 435.164 113.706 434.706 113.11C434.248 112.515 433.595 112.218 432.747 112.219ZM432.747 117.043C432.175 117.043 431.888 116.529 431.888 115.5C431.888 114.471 432.175 113.957 432.747 113.957C433.32 113.957 433.607 114.471 433.607 115.5C433.607 116.529 433.32 117.043 432.747 117.043ZM436.632 113.11C436.174 113.705 435.945 114.501 435.945 115.5C435.945 116.499 436.174 117.295 436.632 117.89C437.091 118.484 437.744 118.781 438.591 118.781C439.439 118.781 440.092 118.484 440.55 117.89C441.008 117.295 441.237 116.499 441.237 115.5C441.237 114.501 441.008 113.705 440.55 113.11C440.092 112.515 439.439 112.218 438.591 112.219C437.744 112.22 437.091 112.517 436.632 113.11ZM438.591 113.959C439.164 113.959 439.45 114.473 439.45 115.502C439.45 116.53 439.164 117.045 438.591 117.045C438.019 117.045 437.732 116.53 437.732 115.502C437.732 114.473 438.019 113.959 438.591 113.959ZM444.812 118.138V112.862C444.812 112.729 444.759 112.602 444.665 112.509C444.571 112.415 444.444 112.363 444.312 112.363H443.372C443.313 112.362 443.255 112.372 443.2 112.392L441.947 112.843C441.829 112.885 441.731 112.971 441.673 113.083C441.615 113.194 441.601 113.323 441.634 113.445L441.798 114.031C441.833 114.157 441.917 114.263 442.031 114.328C442.145 114.393 442.279 114.41 442.406 114.377C442.479 114.359 442.556 114.359 442.63 114.375C442.704 114.391 442.773 114.424 442.832 114.47C442.892 114.517 442.94 114.577 442.973 114.644C443.006 114.712 443.023 114.787 443.023 114.862V118.132C443.023 118.264 443.075 118.391 443.169 118.485C443.263 118.579 443.39 118.632 443.523 118.632H444.32C444.45 118.63 444.575 118.577 444.666 118.485C444.758 118.393 444.81 118.268 444.812 118.138ZM448.551 112.219C447.705 112.219 447.052 112.516 446.592 113.11C446.131 113.705 445.902 114.501 445.904 115.5C445.904 116.498 446.133 117.294 446.592 117.89C447.05 118.485 447.703 118.782 448.551 118.781C449.395 118.781 450.048 118.484 450.509 117.89C450.971 117.295 451.2 116.499 451.197 115.5C451.197 114.502 450.968 113.706 450.509 113.11C450.051 112.515 449.398 112.218 448.551 112.219ZM448.551 117.043C447.978 117.043 447.691 116.529 447.691 115.5C447.691 114.471 447.978 113.957 448.551 113.957C449.123 113.957 449.41 114.471 449.41 115.5C449.41 116.529 449.123 117.043 448.551 117.043ZM454.394 118.781C455.24 118.781 455.893 118.484 456.353 117.89C456.814 117.295 457.043 116.499 457.041 115.5C457.041 114.502 456.812 113.706 456.353 113.11C455.895 112.515 455.242 112.218 454.394 112.219C453.549 112.219 452.896 112.516 452.436 113.11C451.975 113.705 451.746 114.501 451.748 115.5C451.748 116.498 451.977 117.294 452.436 117.89C452.894 118.485 453.547 118.782 454.394 118.781ZM454.394 113.959C454.967 113.959 455.254 114.473 455.254 115.502C455.254 116.53 454.967 117.045 454.394 117.045C453.822 117.045 453.535 116.53 453.535 115.502C453.535 114.473 453.822 113.959 454.394 113.959ZM458.819 114.869V118.138C458.819 118.271 458.872 118.398 458.965 118.492C459.059 118.586 459.186 118.638 459.319 118.639H460.116C460.182 118.639 460.247 118.626 460.308 118.601C460.369 118.576 460.424 118.539 460.471 118.492C460.517 118.446 460.554 118.391 460.579 118.33C460.604 118.269 460.617 118.204 460.616 118.138V112.862C460.616 112.729 460.564 112.602 460.47 112.509C460.376 112.415 460.249 112.363 460.116 112.363H459.177C459.118 112.362 459.06 112.372 459.005 112.392L457.752 112.843C457.634 112.885 457.536 112.971 457.478 113.083C457.42 113.194 457.406 113.323 457.439 113.445L457.603 114.031C457.637 114.156 457.718 114.262 457.83 114.328C457.942 114.394 458.074 114.414 458.201 114.384C458.274 114.366 458.351 114.365 458.425 114.381C458.499 114.397 458.569 114.43 458.628 114.476C458.688 114.523 458.736 114.583 458.769 114.651C458.802 114.719 458.819 114.794 458.819 114.869ZM466.313 117.89C466.771 117.295 467 116.499 467 115.5C467 114.501 466.771 113.705 466.313 113.11C465.854 112.515 465.201 112.218 464.354 112.219C463.506 112.22 462.853 112.517 462.393 113.11C461.935 113.705 461.706 114.501 461.706 115.5C461.706 116.499 461.935 117.295 462.393 117.89C462.851 118.484 463.505 118.781 464.354 118.781C465.203 118.781 465.856 118.484 466.313 117.89ZM463.5 115.5C463.5 114.471 463.786 113.957 464.359 113.957C464.932 113.957 465.218 114.471 465.218 115.5C465.218 116.529 464.932 117.043 464.359 117.043C463.786 117.043 463.5 116.529 463.5 115.5ZM425.395 123.389V126.66C425.395 126.793 425.447 126.92 425.541 127.013C425.635 127.107 425.762 127.159 425.895 127.159H426.692C426.825 127.159 426.951 127.106 427.045 127.013C427.139 126.919 427.192 126.792 427.192 126.66V121.382C427.19 121.25 427.135 121.125 427.041 121.033C426.946 120.941 426.819 120.89 426.687 120.892H425.738C425.68 120.891 425.622 120.901 425.567 120.921L424.314 121.372C424.201 121.417 424.108 121.503 424.054 121.612C424 121.722 423.988 121.847 424.02 121.965L424.182 122.551C424.216 122.676 424.298 122.782 424.41 122.848C424.522 122.914 424.655 122.934 424.781 122.904C424.855 122.887 424.931 122.887 425.004 122.903C425.078 122.92 425.146 122.953 425.205 122.999C425.264 123.046 425.312 123.105 425.345 123.173C425.378 123.24 425.395 123.314 425.395 123.389ZM431.301 126.66V121.382C431.298 121.251 431.245 121.126 431.151 121.035C431.058 120.943 430.932 120.892 430.801 120.892H429.862C429.804 120.891 429.746 120.901 429.691 120.921L428.438 121.372C428.319 121.414 428.221 121.499 428.163 121.611C428.105 121.723 428.091 121.852 428.125 121.973L428.287 122.56C428.321 122.684 428.403 122.791 428.515 122.857C428.627 122.923 428.76 122.943 428.886 122.913C428.96 122.895 429.036 122.894 429.11 122.911C429.184 122.927 429.253 122.959 429.313 123.006C429.372 123.053 429.42 123.112 429.453 123.18C429.486 123.248 429.503 123.322 429.503 123.398V126.669C429.503 126.801 429.556 126.928 429.65 127.022C429.743 127.115 429.871 127.168 430.003 127.168H430.801C430.867 127.168 430.932 127.154 430.994 127.129C431.055 127.103 431.11 127.065 431.157 127.018C431.203 126.971 431.24 126.915 431.265 126.854C431.289 126.792 431.301 126.726 431.301 126.66ZM435.23 126.66V121.382C435.228 121.251 435.174 121.126 435.081 121.035C434.987 120.943 434.861 120.892 434.73 120.892H433.79C433.732 120.891 433.674 120.901 433.619 120.921L432.366 121.372C432.247 121.414 432.149 121.5 432.091 121.611C432.033 121.723 432.02 121.852 432.053 121.973L432.216 122.56C432.25 122.685 432.332 122.791 432.444 122.857C432.555 122.923 432.688 122.943 432.814 122.913C432.888 122.895 432.964 122.894 433.038 122.911C433.112 122.927 433.181 122.959 433.241 123.006C433.3 123.053 433.348 123.112 433.381 123.18C433.414 123.248 433.431 123.322 433.431 123.398V126.669C433.432 126.801 433.485 126.928 433.578 127.021C433.672 127.115 433.799 127.167 433.931 127.168H434.729C434.795 127.168 434.861 127.155 434.922 127.129C434.984 127.104 435.04 127.066 435.086 127.019C435.133 126.972 435.17 126.916 435.195 126.854C435.219 126.793 435.231 126.727 435.23 126.66ZM438.6 120.739C437.757 120.739 437.104 121.037 436.641 121.632C436.178 122.228 435.949 123.024 435.954 124.02C435.954 125.02 436.183 125.817 436.641 126.41C437.099 127.003 437.752 127.301 438.6 127.303C439.445 127.303 440.099 127.005 440.56 126.41C441.022 125.815 441.251 125.018 441.248 124.02C441.248 123.022 441.019 122.226 440.56 121.632C440.102 121.038 439.449 120.74 438.6 120.739ZM438.6 125.563C438.027 125.563 437.741 125.049 437.741 124.02C437.741 122.992 438.027 122.477 438.6 122.477C439.173 122.477 439.459 122.992 439.459 124.02C439.459 125.049 439.173 125.563 438.6 125.563ZM444.262 127.303C445.107 127.303 445.76 127.005 446.221 126.41C446.681 125.815 446.91 125.018 446.908 124.02C446.908 123.022 446.679 122.226 446.221 121.632C445.762 121.038 445.109 120.74 444.262 120.739C443.417 120.739 442.764 121.037 442.303 121.632C441.841 122.228 441.612 123.024 441.616 124.02C441.616 125.02 441.845 125.817 442.303 126.41C442.761 127.003 443.414 127.301 444.262 127.303ZM444.262 122.479C444.834 122.479 445.121 122.993 445.121 124.022C445.121 125.051 444.834 125.565 444.262 125.565C443.689 125.565 443.403 125.051 443.403 124.022C443.403 122.993 443.689 122.479 444.262 122.479ZM450.31 126.66V121.382C450.309 121.316 450.295 121.251 450.268 121.19C450.242 121.129 450.203 121.075 450.155 121.029C450.107 120.984 450.051 120.948 449.989 120.924C449.927 120.901 449.861 120.89 449.795 120.892H448.855C448.796 120.891 448.738 120.901 448.683 120.921L447.43 121.372C447.312 121.414 447.214 121.5 447.156 121.611C447.098 121.723 447.084 121.852 447.117 121.973L447.279 122.56C447.314 122.684 447.396 122.791 447.507 122.857C447.619 122.923 447.752 122.943 447.879 122.913C447.952 122.895 448.029 122.894 448.103 122.911C448.177 122.927 448.246 122.959 448.305 123.006C448.364 123.053 448.412 123.112 448.445 123.18C448.478 123.248 448.496 123.322 448.496 123.398V126.669C448.496 126.801 448.548 126.928 448.642 127.022C448.736 127.115 448.863 127.168 448.996 127.168H449.795C449.862 127.17 449.93 127.158 449.992 127.133C450.055 127.108 450.113 127.071 450.161 127.024C450.209 126.976 450.247 126.92 450.273 126.857C450.298 126.795 450.311 126.728 450.31 126.66ZM466.462 126.66V121.382C466.462 121.25 466.409 121.123 466.316 121.029C466.222 120.936 466.095 120.883 465.962 120.883H465.022C464.964 120.883 464.906 120.893 464.85 120.912L463.598 121.363C463.479 121.406 463.381 121.491 463.323 121.603C463.265 121.714 463.252 121.844 463.285 121.965L463.448 122.551C463.482 122.676 463.564 122.783 463.675 122.849C463.787 122.915 463.92 122.935 464.046 122.904C464.12 122.887 464.196 122.886 464.27 122.902C464.344 122.918 464.413 122.951 464.473 122.997C464.532 123.044 464.58 123.104 464.613 123.172C464.646 123.239 464.663 123.314 464.663 123.389V126.66C464.664 126.792 464.716 126.919 464.81 127.013C464.904 127.106 465.031 127.159 465.163 127.159H465.96C466.026 127.159 466.091 127.147 466.152 127.122C466.213 127.097 466.268 127.06 466.315 127.014C466.362 126.967 466.399 126.912 466.424 126.852C466.449 126.791 466.462 126.726 466.462 126.66ZM453.855 120.739C453.01 120.739 452.357 121.037 451.896 121.632C451.436 122.228 451.206 123.024 451.209 124.02C451.209 125.02 451.438 125.817 451.896 126.41C452.354 127.003 453.007 127.301 453.855 127.303C454.699 127.303 455.352 127.005 455.814 126.41C456.275 125.815 456.505 125.018 456.501 124.02C456.501 123.022 456.272 122.226 455.814 121.632C455.356 121.038 454.703 120.74 453.855 120.739ZM453.855 125.563C453.282 125.563 452.996 125.049 452.996 124.02C452.996 122.992 453.282 122.477 453.855 122.477C454.428 122.477 454.714 122.992 454.714 124.02C454.714 125.049 454.428 125.563 453.855 125.563ZM459.883 127.303C460.726 127.303 461.379 127.005 461.842 126.41C462.304 125.815 462.534 125.018 462.529 124.02C462.529 123.022 462.3 122.226 461.842 121.632C461.383 121.038 460.73 120.74 459.883 120.739C459.037 120.739 458.384 121.037 457.922 121.632C457.461 122.228 457.231 123.024 457.235 124.02C457.235 125.02 457.464 125.817 457.922 126.41C458.38 127.003 459.034 127.301 459.883 127.303ZM459.883 122.479C460.456 122.479 460.742 122.993 460.742 124.022C460.742 125.051 460.456 125.565 459.883 125.565C459.31 125.565 459.024 125.051 459.024 124.022C459.024 122.993 459.31 122.479 459.883 122.479ZM426.72 129.438C425.874 129.438 425.221 129.735 424.761 130.329C424.3 130.923 424.071 131.72 424.073 132.719C424.073 133.719 424.302 134.515 424.761 135.109C425.219 135.702 425.872 135.999 426.72 136C427.563 136 428.216 135.703 428.678 135.109C429.141 134.514 429.37 133.718 429.366 132.719C429.366 131.721 429.137 130.924 428.678 130.329C428.22 129.734 427.567 129.436 426.72 129.438ZM426.72 134.262C426.147 134.262 425.86 133.747 425.86 132.719C425.86 131.69 426.147 131.176 426.72 131.176C427.292 131.176 427.579 131.69 427.579 132.719C427.579 133.747 427.292 134.262 426.72 134.263V134.262ZM432.564 129.438C431.72 129.438 431.067 129.735 430.605 130.329C430.142 130.923 429.913 131.72 429.917 132.719C429.917 133.719 430.146 134.515 430.605 135.109C431.063 135.702 431.716 135.999 432.564 136C433.409 136 434.062 135.703 434.522 135.109C434.983 134.514 435.212 133.718 435.21 132.719C435.21 131.721 434.981 130.924 434.522 130.329C434.064 129.734 433.411 129.436 432.564 129.438ZM432.564 134.262C431.991 134.262 431.704 133.747 431.704 132.719C431.704 131.69 431.991 131.176 432.564 131.176C433.136 131.176 433.423 131.69 433.423 132.719C433.423 133.747 433.136 134.262 432.564 134.263V134.262ZM438.591 129.438C437.746 129.438 437.093 129.735 436.632 130.329C436.172 130.923 435.943 131.72 435.945 132.719C435.945 133.719 436.174 134.515 436.632 135.109C437.091 135.702 437.744 135.999 438.591 136C439.437 136 440.09 135.703 440.55 135.109C441.011 134.514 441.24 133.718 441.237 132.719C441.237 131.721 441.008 130.924 440.55 130.329C440.092 129.734 439.439 129.436 438.591 129.438ZM438.591 134.262C438.019 134.262 437.732 133.747 437.732 132.719C437.732 131.69 438.019 131.176 438.591 131.176C439.164 131.176 439.45 131.69 439.45 132.719C439.45 133.747 439.164 134.262 438.591 134.263V134.262ZM441.638 130.663L441.801 131.25C441.835 131.374 441.917 131.481 442.029 131.547C442.14 131.613 442.273 131.633 442.399 131.603C442.473 131.585 442.549 131.584 442.623 131.6C442.697 131.617 442.766 131.649 442.825 131.696C442.885 131.743 442.933 131.802 442.966 131.87C442.999 131.938 443.016 132.012 443.016 132.088V135.359C443.016 135.491 443.069 135.618 443.163 135.711C443.257 135.805 443.383 135.857 443.516 135.858H444.313C444.446 135.858 444.573 135.805 444.667 135.712C444.761 135.618 444.813 135.491 444.813 135.359V130.08C444.813 129.948 444.761 129.821 444.667 129.728C444.573 129.634 444.446 129.582 444.313 129.582H443.373C443.315 129.581 443.257 129.591 443.201 129.611L441.949 130.062C441.831 130.104 441.733 130.19 441.675 130.302C441.618 130.413 441.604 130.542 441.638 130.663ZM448.367 129.438C447.521 129.438 446.868 129.735 446.408 130.329C445.947 130.923 445.718 131.72 445.721 132.719C445.721 133.719 445.95 134.515 446.408 135.109C446.866 135.702 447.519 135.999 448.367 136C449.212 136 449.865 135.703 450.326 135.109C450.786 134.514 451.015 133.718 451.013 132.719C451.013 131.721 450.784 130.924 450.326 130.329C449.867 129.734 449.214 129.436 448.367 129.438ZM448.367 134.262C447.794 134.262 447.508 133.747 447.508 132.719C447.508 131.69 447.794 131.176 448.367 131.176C448.939 131.176 449.226 131.69 449.226 132.719C449.226 133.747 448.939 134.262 448.367 134.263V134.262ZM454.394 129.438C453.549 129.438 452.896 129.735 452.436 130.329C451.975 130.923 451.746 131.72 451.748 132.719C451.748 133.719 451.977 134.515 452.436 135.109C452.894 135.702 453.547 135.999 454.394 136C455.24 136 455.893 135.703 456.353 135.109C456.814 134.514 457.043 133.718 457.041 132.719C457.041 131.721 456.812 130.924 456.353 130.329C455.895 129.734 455.242 129.436 454.394 129.438ZM454.394 134.262C453.822 134.262 453.535 133.747 453.535 132.719C453.535 131.69 453.822 131.176 454.394 131.176C454.967 131.176 455.254 131.69 455.254 132.719C455.254 133.747 454.967 134.262 454.394 134.263V134.262ZM457.441 130.663L457.604 131.25C457.639 131.374 457.72 131.481 457.832 131.547C457.943 131.613 458.076 131.633 458.202 131.603C458.276 131.585 458.352 131.584 458.426 131.6C458.5 131.617 458.569 131.649 458.629 131.696C458.688 131.743 458.736 131.802 458.769 131.87C458.802 131.938 458.819 132.012 458.819 132.088V135.359C458.82 135.491 458.872 135.618 458.966 135.711C459.06 135.805 459.187 135.857 459.319 135.858H460.116C460.249 135.858 460.376 135.805 460.47 135.712C460.564 135.618 460.616 135.491 460.616 135.359V130.08C460.616 129.948 460.564 129.821 460.47 129.728C460.376 129.634 460.249 129.582 460.116 129.582H459.177C459.118 129.581 459.06 129.591 459.005 129.611L457.752 130.062C457.634 130.104 457.536 130.19 457.479 130.302C457.421 130.413 457.408 130.542 457.441 130.663Z" fill="black" fill-opacity="0.15"/>
<path d="M269.92 176.76H296.8C305.76 176.76 310.24 172.12 310.24 162.84V108.28C310.24 99 305.76 94.36 296.8 94.36H269.92C268.853 94.36 268.32 94.84 268.32 95.8V175.32C268.32 176.28 268.853 176.76 269.92 176.76ZM256.64 184.76V86.36C256.64 84.8667 257.387 84.12 258.88 84.12H298.24C305.6 84.12 311.36 86.2533 315.52 90.52C319.787 94.68 321.92 100.44 321.92 107.8V163.32C321.92 170.68 319.787 176.493 315.52 180.76C311.36 184.92 305.6 187 298.24 187H258.88C257.387 187 256.64 186.253 256.64 184.76ZM370.666 187H363.466C361.973 187 361.226 186.253 361.226 184.76V95.8C361.226 94.84 360.693 94.36 359.626 94.36H337.866C336.266 94.36 335.466 93.6133 335.466 92.12V86.36C335.466 84.8667 336.266 84.12 337.866 84.12H396.266C397.866 84.12 398.666 84.8667 398.666 86.36V92.12C398.666 93.6133 397.866 94.36 396.266 94.36H374.506C373.44 94.36 372.906 94.84 372.906 95.8V184.76C372.906 186.253 372.16 187 370.666 187ZM427.108 177.08H453.348C462.521 177.08 467.108 172.547 467.108 163.48V153.08C467.108 144.013 462.201 139.48 452.388 139.48H427.108C426.041 139.48 425.508 139.96 425.508 140.92V175.48C425.508 176.547 426.041 177.08 427.108 177.08ZM427.108 129.72H451.748C461.134 129.72 465.828 125.187 465.828 116.12V107.64C465.828 98.5733 461.294 94.04 452.228 94.04H427.108C426.041 94.04 425.508 94.5733 425.508 95.64V128.28C425.508 129.24 426.041 129.72 427.108 129.72ZM413.828 184.76V86.36C413.828 84.8667 414.574 84.12 416.068 84.12H453.668C461.028 84.12 466.788 86.2 470.948 90.36C475.108 94.4133 477.188 100.12 477.188 107.48V116.28C477.188 125.773 472.708 131.907 463.748 134.68C467.801 135 471.268 136.813 474.148 140.12C477.028 143.32 478.468 147.587 478.468 152.92V163.64C478.468 171 476.334 176.76 472.068 180.92C467.908 184.973 462.148 187 454.788 187H416.068C414.574 187 413.828 186.253 413.828 184.76Z" fill="black"/>
<g style="mix-blend-mode:soft-light">
<path d="M292.739 136.767C292.984 136.563 293.208 136.355 293.406 136.152C292.852 136.297 292.289 136.3 291.722 136.245C291.042 136.254 291.852 136.621 292.739 136.767ZM295.375 135.269C295.78 134.67 296.076 134.013 296.18 133.335C296.089 133.818 295.844 134.235 295.613 134.676C294.34 135.533 295.494 134.166 295.613 133.647C294.245 135.491 295.425 134.753 295.375 135.268V135.269ZM296.724 131.511C296.806 130.199 296.483 130.613 296.374 131.115C296.5 131.185 296.602 132.04 296.724 131.511ZM289.141 113.567C289.504 113.636 289.925 113.689 289.867 113.782C290.263 113.689 290.354 113.603 289.141 113.567ZM289.849 113.817L289.867 113.782L289.609 113.839L289.849 113.817ZM288.922 140.947C287.921 140.435 287.031 139.706 286.308 138.805C286.699 139.419 287.122 140.015 287.667 140.484C286.743 140.149 285.51 138.088 285.15 138.004C286.743 141.057 291.609 143.358 294.158 142.217C292.978 142.263 291.481 142.242 290.156 141.718C289.646 141.436 288.97 140.881 288.964 140.698C288.939 140.769 288.897 140.84 288.923 140.947H288.922ZM288.973 140.662C288.966 140.672 288.962 140.684 288.963 140.697L288.973 140.662ZM303.595 128.721C303.607 128.052 303.769 128.37 303.832 128.205C303.709 128.129 303.387 127.616 303.191 126.633C303.334 126.401 303.57 127.232 303.764 127.267C303.639 126.485 303.426 125.888 303.418 125.287C302.853 124.024 303.218 125.456 302.759 124.744C302.158 122.736 303.257 124.279 303.332 123.367C304.243 124.781 304.762 126.97 305 127.878C304.813 126.782 304.533 125.706 304.165 124.664C304.442 124.788 303.72 122.389 304.525 123.978C303.666 120.59 300.846 117.424 298.252 115.938C298.569 116.25 298.97 116.64 298.826 116.701C297.536 115.878 297.762 115.814 297.579 115.468C296.527 115.01 296.459 115.504 295.763 115.469C293.782 114.344 293.4 114.464 291.577 113.759L291.661 114.174C290.348 113.707 290.131 114.352 288.713 114.176C288.626 114.103 289.167 113.914 289.612 113.845C288.343 114.024 288.403 113.578 287.162 113.894C287.467 113.664 287.79 113.511 288.118 113.316C287.084 113.384 285.648 113.962 286.091 113.436C284.402 114.243 281.405 115.375 279.723 117.065L279.67 116.686C278.898 117.677 276.308 119.646 276.102 120.93L275.897 120.982C275.496 121.709 275.236 122.533 274.918 123.282C274.394 124.239 274.148 123.651 274.223 123.8C273.192 126.041 272.679 127.923 272.237 129.467C272.553 129.972 272.244 132.507 272.363 134.537C271.844 144.56 278.931 154.29 286.675 156.537C287.811 156.972 289.499 156.956 290.935 157C289.241 156.481 289.022 156.725 287.372 156.109C286.182 155.508 285.92 154.824 285.077 154.04L285.41 154.671C283.756 154.045 284.448 153.895 283.102 153.439L283.459 152.94C282.923 152.896 282.04 151.972 281.797 151.461L281.211 151.486C280.506 150.554 280.131 149.884 280.159 149.365L279.97 149.726C279.755 149.331 277.378 146.234 278.61 146.955C278.381 146.73 278.077 146.59 277.747 145.948L277.998 145.641C277.404 144.823 276.906 143.775 276.943 143.425C277.26 143.883 277.479 143.968 277.697 144.047C276.198 140.064 276.114 143.828 274.978 139.993L275.218 139.973C275.034 139.675 274.923 139.353 274.774 139.036L274.879 137.921C273.8 136.585 274.577 132.238 274.733 129.856C274.84 128.886 275.634 127.854 276.236 126.236L275.869 126.169C276.571 124.856 279.878 120.9 281.411 121.103C282.153 120.105 281.264 121.1 281.119 120.848C282.748 119.041 283.261 119.572 284.361 119.246C285.547 118.492 283.343 119.54 283.906 118.958C285.957 118.398 285.359 117.683 288.034 117.398C288.316 117.57 287.379 117.664 287.144 117.888C288.853 116.992 292.551 117.195 294.953 118.385C297.74 119.781 300.873 123.904 300.996 127.785L301.137 127.826C301.067 129.368 301.358 131.152 300.852 132.791L301.196 132.015C301.236 133.193 300.874 133.766 300.547 134.778L299.957 135.093C299.476 136.094 300.004 135.729 299.659 136.525C298.907 137.241 297.379 138.764 296.89 138.903C296.533 138.895 297.132 138.451 297.21 138.278C296.205 139.018 296.403 139.389 294.865 139.839L294.819 139.732C291.024 141.644 285.754 137.855 285.823 132.685C285.782 133.014 285.709 132.931 285.623 133.064C285.428 130.403 286.771 127.733 289.035 126.642C291.251 125.468 293.847 125.95 295.434 127.533C294.562 126.31 292.827 125.013 290.772 125.135C288.757 125.169 286.874 126.54 286.245 128.027C285.213 128.723 285.093 130.709 284.643 131.072C284.038 135.834 285.78 137.891 288.729 140.311C288.967 140.483 288.995 140.58 288.975 140.668L288.979 140.662C292.457 142.053 296.049 141.716 299.058 139.132C299.824 138.494 300.66 137.408 300.902 137.392C300.538 137.979 300.964 137.674 300.685 138.191C301.447 136.874 300.353 137.655 301.474 135.916L301.888 136.526C301.734 135.433 303.156 134.105 303.012 132.375C303.338 131.846 303.376 132.945 303.03 134.161C303.51 132.811 303.156 132.594 303.279 131.48C303.413 131.854 303.588 132.252 303.678 132.647C303.365 131.343 303.998 130.45 304.155 129.692C304.001 129.618 303.672 130.268 303.597 128.727L303.595 128.721ZM284.197 137.756C284.643 138.407 284.999 139.112 285.57 139.62C285.159 138.761 284.855 138.405 284.292 137.244L284.197 137.756V137.756ZM285.35 137.2C285.113 136.92 284.972 136.582 284.817 136.245C284.967 136.836 285.274 137.343 285.56 137.861L285.35 137.2ZM302.777 137.167C303.444 135.82 303.879 134.356 304.063 132.844L303.963 133.113C303.778 134.525 303.378 135.895 302.777 137.167ZM290.895 113C290.259 113.057 289.626 113.091 289 113.178L289.276 113.219C289.736 113.038 290.407 113.12 290.895 113.002V113ZM273.306 123.185C273.78 122.045 273.176 122.776 273.123 122.472C273.196 123.484 272.395 123.866 273.306 123.185ZM272.365 125.758C271.775 126.565 272.093 126.737 272.031 127.286C272.244 126.584 272.282 126.164 272.365 125.758Z" fill="#444444" fill-opacity="0.15"/>
</g>
</svg>
